<mxfile host="app.diagrams.net" modified="2024-04-25T17:49:40.074Z" agent="Mozilla/5.0 (Windows NT 10.0; Win64; x64) AppleWebKit/537.36 (KHTML, like Gecko) Chrome/124.0.0.0 Safari/537.36 Edg/124.0.0.0" etag="2smzyqqvx36dquuQR-ae" version="24.3.0" type="github">
  <diagram id="C5RBs43oDa-KdzZeNtuy" name="Page-1">
    <mxGraphModel dx="1235" dy="719" grid="1" gridSize="10" guides="1" tooltips="1" connect="1" arrows="1" fold="1" page="1" pageScale="1" pageWidth="827" pageHeight="1169" math="0" shadow="0">
      <root>
        <mxCell id="WIyWlLk6GJQsqaUBKTNV-0" />
        <mxCell id="WIyWlLk6GJQsqaUBKTNV-1" parent="WIyWlLk6GJQsqaUBKTNV-0" />
        <mxCell id="5q6X3M7gHuBflBp6HsSv-2" value="" style="edgeStyle=orthogonalEdgeStyle;rounded=0;orthogonalLoop=1;jettySize=auto;html=1;" edge="1" parent="WIyWlLk6GJQsqaUBKTNV-1" source="5q6X3M7gHuBflBp6HsSv-0" target="5q6X3M7gHuBflBp6HsSv-1">
          <mxGeometry relative="1" as="geometry" />
        </mxCell>
        <mxCell id="5q6X3M7gHuBflBp6HsSv-0" value="JPARepository类&lt;div&gt;修改实体&lt;/div&gt;" style="strokeWidth=2;html=1;shape=mxgraph.flowchart.terminator;whiteSpace=wrap;" vertex="1" parent="WIyWlLk6GJQsqaUBKTNV-1">
          <mxGeometry x="660" y="360" width="100" height="60" as="geometry" />
        </mxCell>
        <mxCell id="5q6X3M7gHuBflBp6HsSv-4" value="" style="edgeStyle=orthogonalEdgeStyle;rounded=0;orthogonalLoop=1;jettySize=auto;html=1;" edge="1" parent="WIyWlLk6GJQsqaUBKTNV-1" source="5q6X3M7gHuBflBp6HsSv-1" target="5q6X3M7gHuBflBp6HsSv-3">
          <mxGeometry relative="1" as="geometry" />
        </mxCell>
        <mxCell id="5q6X3M7gHuBflBp6HsSv-1" value="使用Jakarta Persistence API 调用声明的监听器" style="rounded=1;whiteSpace=wrap;html=1;strokeWidth=2;" vertex="1" parent="WIyWlLk6GJQsqaUBKTNV-1">
          <mxGeometry x="414" y="360" width="120" height="60" as="geometry" />
        </mxCell>
        <mxCell id="5q6X3M7gHuBflBp6HsSv-6" value="" style="edgeStyle=orthogonalEdgeStyle;rounded=0;orthogonalLoop=1;jettySize=auto;html=1;" edge="1" parent="WIyWlLk6GJQsqaUBKTNV-1" source="5q6X3M7gHuBflBp6HsSv-3" target="5q6X3M7gHuBflBp6HsSv-5">
          <mxGeometry relative="1" as="geometry" />
        </mxCell>
        <mxCell id="5q6X3M7gHuBflBp6HsSv-3" value="尝试从缓存中&lt;div&gt;按主键读取对象&lt;/div&gt;" style="rounded=1;whiteSpace=wrap;html=1;strokeWidth=2;" vertex="1" parent="WIyWlLk6GJQsqaUBKTNV-1">
          <mxGeometry x="110" y="360" width="120" height="60" as="geometry" />
        </mxCell>
        <mxCell id="5q6X3M7gHuBflBp6HsSv-8" value="Y" style="edgeStyle=orthogonalEdgeStyle;rounded=0;orthogonalLoop=1;jettySize=auto;html=1;" edge="1" parent="WIyWlLk6GJQsqaUBKTNV-1" source="5q6X3M7gHuBflBp6HsSv-5" target="5q6X3M7gHuBflBp6HsSv-7">
          <mxGeometry relative="1" as="geometry" />
        </mxCell>
        <mxCell id="5q6X3M7gHuBflBp6HsSv-10" value="" style="edgeStyle=orthogonalEdgeStyle;rounded=0;orthogonalLoop=1;jettySize=auto;html=1;" edge="1" parent="WIyWlLk6GJQsqaUBKTNV-1" source="5q6X3M7gHuBflBp6HsSv-5" target="5q6X3M7gHuBflBp6HsSv-9">
          <mxGeometry relative="1" as="geometry" />
        </mxCell>
        <mxCell id="5q6X3M7gHuBflBp6HsSv-5" value="缓存中是否&lt;div&gt;存在对象&lt;/div&gt;" style="rhombus;whiteSpace=wrap;html=1;rounded=1;strokeWidth=2;" vertex="1" parent="WIyWlLk6GJQsqaUBKTNV-1">
          <mxGeometry x="130" y="490" width="80" height="80" as="geometry" />
        </mxCell>
        <mxCell id="5q6X3M7gHuBflBp6HsSv-12" value="" style="edgeStyle=orthogonalEdgeStyle;rounded=0;orthogonalLoop=1;jettySize=auto;html=1;" edge="1" parent="WIyWlLk6GJQsqaUBKTNV-1" source="5q6X3M7gHuBflBp6HsSv-7" target="5q6X3M7gHuBflBp6HsSv-11">
          <mxGeometry relative="1" as="geometry" />
        </mxCell>
        <mxCell id="5q6X3M7gHuBflBp6HsSv-7" value="通过反射获取&lt;div&gt;实体类&lt;span style=&quot;background-color: initial;&quot;&gt;属性&lt;/span&gt;&lt;/div&gt;&lt;div&gt;&lt;span style=&quot;background-color: initial;&quot;&gt;并遍历注解&lt;/span&gt;&lt;/div&gt;" style="whiteSpace=wrap;html=1;rounded=1;strokeWidth=2;" vertex="1" parent="WIyWlLk6GJQsqaUBKTNV-1">
          <mxGeometry x="270" y="500" width="120" height="60" as="geometry" />
        </mxCell>
        <mxCell id="5q6X3M7gHuBflBp6HsSv-32" style="edgeStyle=orthogonalEdgeStyle;rounded=0;orthogonalLoop=1;jettySize=auto;html=1;entryX=0;entryY=0.5;entryDx=0;entryDy=0;" edge="1" parent="WIyWlLk6GJQsqaUBKTNV-1" source="5q6X3M7gHuBflBp6HsSv-9" target="5q6X3M7gHuBflBp6HsSv-31">
          <mxGeometry relative="1" as="geometry" />
        </mxCell>
        <mxCell id="5q6X3M7gHuBflBp6HsSv-9" value="直接修改缓存" style="rounded=1;whiteSpace=wrap;html=1;strokeWidth=2;" vertex="1" parent="WIyWlLk6GJQsqaUBKTNV-1">
          <mxGeometry x="110" y="660" width="120" height="60" as="geometry" />
        </mxCell>
        <mxCell id="5q6X3M7gHuBflBp6HsSv-16" value="" style="edgeStyle=orthogonalEdgeStyle;rounded=0;orthogonalLoop=1;jettySize=auto;html=1;" edge="1" parent="WIyWlLk6GJQsqaUBKTNV-1" source="5q6X3M7gHuBflBp6HsSv-11" target="5q6X3M7gHuBflBp6HsSv-15">
          <mxGeometry relative="1" as="geometry" />
        </mxCell>
        <mxCell id="5q6X3M7gHuBflBp6HsSv-11" value="寻找实体类中&lt;div&gt;被声明为索引的属性&lt;/div&gt;" style="whiteSpace=wrap;html=1;rounded=1;strokeWidth=2;" vertex="1" parent="WIyWlLk6GJQsqaUBKTNV-1">
          <mxGeometry x="470" y="500" width="120" height="60" as="geometry" />
        </mxCell>
        <mxCell id="5q6X3M7gHuBflBp6HsSv-18" value="" style="edgeStyle=orthogonalEdgeStyle;rounded=0;orthogonalLoop=1;jettySize=auto;html=1;" edge="1" parent="WIyWlLk6GJQsqaUBKTNV-1" source="5q6X3M7gHuBflBp6HsSv-15" target="5q6X3M7gHuBflBp6HsSv-17">
          <mxGeometry relative="1" as="geometry" />
        </mxCell>
        <mxCell id="5q6X3M7gHuBflBp6HsSv-15" value="遍历作为索引&lt;div&gt;的字段&lt;/div&gt;" style="strokeWidth=2;html=1;shape=mxgraph.flowchart.loop_limit;whiteSpace=wrap;" vertex="1" parent="WIyWlLk6GJQsqaUBKTNV-1">
          <mxGeometry x="670" y="500" width="100" height="60" as="geometry" />
        </mxCell>
        <mxCell id="5q6X3M7gHuBflBp6HsSv-20" value="" style="edgeStyle=orthogonalEdgeStyle;rounded=0;orthogonalLoop=1;jettySize=auto;html=1;" edge="1" parent="WIyWlLk6GJQsqaUBKTNV-1" source="5q6X3M7gHuBflBp6HsSv-17" target="5q6X3M7gHuBflBp6HsSv-19">
          <mxGeometry relative="1" as="geometry" />
        </mxCell>
        <mxCell id="5q6X3M7gHuBflBp6HsSv-29" value="" style="edgeStyle=orthogonalEdgeStyle;rounded=0;orthogonalLoop=1;jettySize=auto;html=1;" edge="1" parent="WIyWlLk6GJQsqaUBKTNV-1" source="5q6X3M7gHuBflBp6HsSv-17" target="5q6X3M7gHuBflBp6HsSv-28">
          <mxGeometry relative="1" as="geometry" />
        </mxCell>
        <mxCell id="5q6X3M7gHuBflBp6HsSv-17" value="比较缓存中此对象&lt;div&gt;和新对象的字段的值&lt;/div&gt;" style="rounded=1;whiteSpace=wrap;html=1;strokeWidth=2;" vertex="1" parent="WIyWlLk6GJQsqaUBKTNV-1">
          <mxGeometry x="660" y="640" width="120" height="60" as="geometry" />
        </mxCell>
        <mxCell id="5q6X3M7gHuBflBp6HsSv-22" value="Y" style="edgeStyle=orthogonalEdgeStyle;rounded=0;orthogonalLoop=1;jettySize=auto;html=1;" edge="1" parent="WIyWlLk6GJQsqaUBKTNV-1" source="5q6X3M7gHuBflBp6HsSv-19" target="5q6X3M7gHuBflBp6HsSv-21">
          <mxGeometry relative="1" as="geometry" />
        </mxCell>
        <mxCell id="5q6X3M7gHuBflBp6HsSv-23" style="edgeStyle=orthogonalEdgeStyle;rounded=0;orthogonalLoop=1;jettySize=auto;html=1;entryX=1;entryY=0.5;entryDx=0;entryDy=0;" edge="1" parent="WIyWlLk6GJQsqaUBKTNV-1" source="5q6X3M7gHuBflBp6HsSv-19" target="5q6X3M7gHuBflBp6HsSv-17">
          <mxGeometry relative="1" as="geometry">
            <Array as="points">
              <mxPoint x="520" y="720" />
              <mxPoint x="800" y="720" />
              <mxPoint x="800" y="670" />
            </Array>
          </mxGeometry>
        </mxCell>
        <mxCell id="5q6X3M7gHuBflBp6HsSv-19" value="是否需要更新" style="rhombus;whiteSpace=wrap;html=1;rounded=1;strokeWidth=2;" vertex="1" parent="WIyWlLk6GJQsqaUBKTNV-1">
          <mxGeometry x="480" y="630" width="80" height="80" as="geometry" />
        </mxCell>
        <mxCell id="5q6X3M7gHuBflBp6HsSv-25" style="edgeStyle=orthogonalEdgeStyle;rounded=0;orthogonalLoop=1;jettySize=auto;html=1;" edge="1" parent="WIyWlLk6GJQsqaUBKTNV-1" source="5q6X3M7gHuBflBp6HsSv-21">
          <mxGeometry relative="1" as="geometry">
            <mxPoint x="780" y="650" as="targetPoint" />
            <Array as="points">
              <mxPoint x="360" y="740" />
              <mxPoint x="830" y="740" />
              <mxPoint x="830" y="650" />
            </Array>
          </mxGeometry>
        </mxCell>
        <mxCell id="5q6X3M7gHuBflBp6HsSv-21" value="淘汰相应名称的缓存" style="rounded=1;whiteSpace=wrap;html=1;strokeWidth=2;" vertex="1" parent="WIyWlLk6GJQsqaUBKTNV-1">
          <mxGeometry x="300" y="640" width="120" height="60" as="geometry" />
        </mxCell>
        <mxCell id="5q6X3M7gHuBflBp6HsSv-28" value="" style="strokeWidth=2;html=1;shape=mxgraph.flowchart.loop_limit;whiteSpace=wrap;rotation=-180;" vertex="1" parent="WIyWlLk6GJQsqaUBKTNV-1">
          <mxGeometry x="670" y="780" width="100" height="60" as="geometry" />
        </mxCell>
        <mxCell id="5q6X3M7gHuBflBp6HsSv-33" style="edgeStyle=orthogonalEdgeStyle;rounded=0;orthogonalLoop=1;jettySize=auto;html=1;" edge="1" parent="WIyWlLk6GJQsqaUBKTNV-1" source="5q6X3M7gHuBflBp6HsSv-30" target="5q6X3M7gHuBflBp6HsSv-31">
          <mxGeometry relative="1" as="geometry" />
        </mxCell>
        <mxCell id="5q6X3M7gHuBflBp6HsSv-30" value="更新全部缓存" style="text;html=1;align=center;verticalAlign=middle;resizable=0;points=[];autosize=1;strokeColor=none;fillColor=none;" vertex="1" parent="WIyWlLk6GJQsqaUBKTNV-1">
          <mxGeometry x="665" y="790" width="100" height="30" as="geometry" />
        </mxCell>
        <mxCell id="5q6X3M7gHuBflBp6HsSv-35" value="" style="edgeStyle=orthogonalEdgeStyle;rounded=0;orthogonalLoop=1;jettySize=auto;html=1;" edge="1" parent="WIyWlLk6GJQsqaUBKTNV-1" source="5q6X3M7gHuBflBp6HsSv-31" target="5q6X3M7gHuBflBp6HsSv-34">
          <mxGeometry relative="1" as="geometry" />
        </mxCell>
        <mxCell id="5q6X3M7gHuBflBp6HsSv-31" value="把新对象转换为&lt;div&gt;文档类对象&lt;/div&gt;" style="rounded=1;whiteSpace=wrap;html=1;strokeWidth=2;" vertex="1" parent="WIyWlLk6GJQsqaUBKTNV-1">
          <mxGeometry x="300" y="775" width="120" height="60" as="geometry" />
        </mxCell>
        <mxCell id="5q6X3M7gHuBflBp6HsSv-34" value="在ESRepository&lt;div&gt;保存文档对象&lt;/div&gt;" style="strokeWidth=2;html=1;shape=mxgraph.flowchart.terminator;whiteSpace=wrap;" vertex="1" parent="WIyWlLk6GJQsqaUBKTNV-1">
          <mxGeometry x="310" y="880" width="100" height="60" as="geometry" />
        </mxCell>
      </root>
    </mxGraphModel>
  </diagram>
</mxfile>
